<svg width="512" height="512" viewBox="0 0 512 512" fill="none" xmlns="http://www.w3.org/2000/svg">
<g clip-path="url(#clip0_596_1023)">
<path d="M298.789 313.693C286.051 322.185 271.255 326.674 256 326.674C240.746 326.674 225.95 322.185 213.212 313.693L3.409 173.82C2.2508 173.046 1.11404 172.24 0 171.403L0 400.6C0 426.878 21.325 447.733 47.133 447.733H464.866C491.144 447.733 511.999 426.408 511.999 400.6V171.402C510.883 172.241 509.744 173.049 508.583 173.824L298.789 313.693Z" fill="#707071"/>
<path d="M20.05 148.858L229.853 288.732C237.795 294.027 246.897 296.674 255.999 296.674C265.102 296.674 274.205 294.026 282.147 288.732L491.95 148.858C504.505 140.493 512 126.493 512 111.383C512 85.402 490.863 64.266 464.883 64.266H47.117C21.137 64.267 2.4801e-05 85.403 2.4801e-05 111.408C-0.0077638 118.82 1.81903 126.119 5.31747 132.653C8.81591 139.188 13.8772 144.755 20.05 148.858Z" fill="#707071"/>
</g>
<defs>
<clipPath id="clip0_596_1023">
<rect width="512" height="512" fill="white"/>
</clipPath>
</defs>
</svg>
