<svg width="32" height="32" viewBox="0 0 32 32" fill="none" xmlns="http://www.w3.org/2000/svg">
<path d="M2 32C0.895431 32 0 31.1046 0 30V2C0 0.895431 0.895431 0 2 0H30C31.1046 0 32 0.895431 32 2V30C32 31.1046 31.1046 32 30 32H2Z" fill="#222222"/>
<path d="M11.7334 6.3999C8.79256 6.3999 6.40002 8.79244 6.40002 11.7332V20.2666C6.40002 23.2074 8.79256 25.5999 11.7334 25.5999H20.2667C23.2075 25.5999 25.6 23.2074 25.6 20.2666V11.7332C25.6 8.79244 23.2075 6.3999 20.2667 6.3999H11.7334ZM11.7334 8.53324H20.2667C22.031 8.53324 23.4667 9.96897 23.4667 11.7332V20.2666C23.4667 22.0308 22.031 23.4666 20.2667 23.4666H11.7334C9.96909 23.4666 8.53336 22.0308 8.53336 20.2666V11.7332C8.53336 9.96897 9.96909 8.53324 11.7334 8.53324ZM21.3334 9.5999C20.7443 9.5999 20.2667 10.0775 20.2667 10.6666C20.2667 11.2557 20.7443 11.7332 21.3334 11.7332C21.9225 11.7332 22.4 11.2557 22.4 10.6666C22.4 10.0775 21.9225 9.5999 21.3334 9.5999ZM16 10.6666C13.0592 10.6666 10.6667 13.0591 10.6667 15.9999C10.6667 18.9407 13.0592 21.3332 16 21.3332C18.9408 21.3332 21.3334 18.9407 21.3334 15.9999C21.3334 13.0591 18.9408 10.6666 16 10.6666ZM16 12.7999C17.7643 12.7999 19.2 14.2356 19.2 15.9999C19.2 17.7642 17.7643 19.1999 16 19.1999C14.2358 19.1999 12.8 17.7642 12.8 15.9999C12.8 14.2356 14.2358 12.7999 16 12.7999Z" fill="white"/>
</svg>
