<svg xmlns="http://www.w3.org/2000/svg" version="1.1" xmlns:xlink="http://www.w3.org/1999/xlink" width="512" height="512" x="0" y="0" viewBox="0 0 512 512" style="enable-background:new 0 0 512 512" xml:space="preserve" class=""><g transform="matrix(1,0,0,1,0,0)"><path d="M497 0H15C6.716 0 0 6.716 0 15v482c0 8.284 6.716 15 15 15h482c8.284 0 15-6.716 15-15V15c0-8.284-6.716-15-15-15zm-69.812 222.285a14.996 14.996 0 0 1-15.195 14.998c-1.886-.024-37.879-.676-70.619-13.867l-.058 94.843c-.303 72.436-50.077 124.912-123.858 130.632-2.709.21-5.422.314-8.119.314-57.907.004-112.02-47.606-122.848-109.802-6.091-34.991 4.578-71.81 29.273-101.016 24.493-28.965 58.273-45.488 92.605-45.286 8.214.044 14.864 6.687 14.918 14.901l.405 61.393c.052 7.79-5.869 14.323-13.626 15.036-19.063 1.752-33.466 17.295-33.502 36.153-.038 19.671 15.968 35.996 35.68 36.389 10.329.204 19.921-3.407 26.884-10.177 6.862-6.672 10.688-15.987 10.771-26.23.499-61.336.253-240.942.25-242.749a15.001 15.001 0 0 1 15-15.021h60.575c7.854 0 14.379 6.059 14.959 13.892 1.975 26.659 12.215 45.298 31.305 56.984 9.459 5.792 21.206 9.336 33.42 12.75 4.774 1.334 7.555 1.713 8.067 1.776 7.897.493 13.712 7.021 13.712 14.947v59.14z" fill="#222222" opacity="1" data-original="#000000" class=""></path><path d="M312.484 92.795h-32.317c.048 44.733.146 177.036-.27 228.015-.149 18.323-7.201 35.19-19.857 47.495-12.756 12.402-29.94 19.039-48.395 18.662-35.955-.717-65.15-30.523-65.081-66.441.058-29.707 19.508-54.894 47.048-63.288l-.216-32.735c-20.182 3.891-39.884 15.705-54.724 33.254-18.943 22.403-27.189 50.286-22.626 76.5 4.233 24.315 17.099 46.599 36.228 62.748 18.785 15.858 41.113 23.663 62.863 21.976 58.189-4.512 95.941-44.075 96.177-100.793l.072-119.66a14.999 14.999 0 0 1 23.666-12.234c18.399 13.024 45.385 17.983 62.134 19.861v-30.881c-13.721-3.838-28.168-8.244-40.863-16.016-23.909-14.636-38.615-36.955-43.839-66.463z" fill="#222222" opacity="1" data-original="#000000" class=""></path></g></svg>