<svg width="64" height="64" viewBox="0 0 64 64" fill="none" xmlns="http://www.w3.org/2000/svg">
<path d="M44.8547 0.75C61.9156 0.75 63.25 2.08438 63.25 19.1453V44.8531C63.25 61.9141 61.9156 63.25 44.8547 63.25H19.1453C2.08594 63.25 0.75 61.9141 0.75 44.8547V19.1453C0.75 2.08438 2.08594 0.75 19.1453 0.75H44.8547ZM48.7687 28.4641V21.9078C48.7687 21.9078 45.3031 21.925 42.3766 19.2438C39.9172 16.9906 39.7125 12.7703 39.7125 12.7703H33.1563C33.1563 12.7703 33.1563 35.1422 33.1563 38.7078C33.1563 42.2719 30.0547 44.1172 27.8297 44.1172C26.1531 44.1172 22.3391 42.8031 22.3391 38.6672C22.3391 34.3266 26.7234 33.2172 27.8703 33.2172C29.0172 33.2172 29.4687 33.4625 29.4687 33.4625V26.5422C29.4687 26.5422 28.4031 26.4406 27.625 26.4141C21.0078 26.1906 15.5375 32.1281 15.5375 38.6656C15.5375 44.1891 19.8578 50.8766 27.7484 50.8766C36.1531 50.8766 40 43.8672 40 38.7062C40 34.9359 40 25.8406 40 25.8406C40 25.8406 42.4172 27.1922 44.3844 27.8078C46.3516 28.4234 48.7687 28.4641 48.7687 28.4641Z" fill="black"/>
</svg>
