<svg width="28" height="27" viewBox="0 0 28 27" fill="none" xmlns="http://www.w3.org/2000/svg">
<path fill-rule="evenodd" clip-rule="evenodd" d="M0.921875 2.50488C0.921875 1.26224 1.92923 0.254883 3.17188 0.254883H10.625C11.8676 0.254883 12.875 1.26224 12.875 2.50488V9.95801C12.875 11.2006 11.8676 12.208 10.625 12.208H3.17187C1.92923 12.208 0.921875 11.2006 0.921875 9.95801V2.50488ZM10.625 2.50488L3.17188 2.50488V9.95801H10.625V2.50488ZM15.125 2.50488C15.125 1.26224 16.1324 0.254883 17.375 0.254883H24.8281C26.0708 0.254883 27.0781 1.26224 27.0781 2.50488V9.95801C27.0781 11.2006 26.0708 12.208 24.8281 12.208H17.375C16.1324 12.208 15.125 11.2006 15.125 9.95801V2.50488ZM24.8281 2.50488L17.375 2.50488V9.95801H24.8281V2.50488ZM0.921875 16.708C0.921875 15.4654 1.92923 14.458 3.17188 14.458H10.625C11.8676 14.458 12.875 15.4654 12.875 16.708V24.1611C12.875 25.4038 11.8676 26.4111 10.625 26.4111H3.17187C1.92923 26.4111 0.921875 25.4038 0.921875 24.1611V16.708ZM10.625 16.708H3.17188V24.1611H10.625V16.708ZM15.125 16.708C15.125 15.4654 16.1324 14.458 17.375 14.458H24.8281C26.0708 14.458 27.0781 15.4654 27.0781 16.708V24.1611C27.0781 25.4038 26.0708 26.4111 24.8281 26.4111H17.375C16.1324 26.4111 15.125 25.4038 15.125 24.1611V16.708ZM24.8281 16.708H17.375V24.1611H24.8281V16.708Z" fill="black"/>
</svg>
