<svg width="39" height="37" viewBox="0 0 39 37" fill="none" xmlns="http://www.w3.org/2000/svg">
<path fill-rule="evenodd" clip-rule="evenodd" d="M19.7001 0.217773C20.6943 0.217773 21.5001 1.02366 21.5001 2.01778L21.5001 35.1378C21.5001 36.1319 20.6943 36.9378 19.7001 36.9378C18.706 36.9378 17.9001 36.1319 17.9001 35.1378V2.01778C17.9001 1.02366 18.706 0.217773 19.7001 0.217773ZM0.620117 5.25778C0.620117 3.46838 2.07072 2.01778 3.86012 2.01778H11.6001C13.3895 2.01778 14.8401 3.46838 14.8401 5.25778V31.8978C14.8401 33.6872 13.3895 35.1378 11.6001 35.1378H3.86012C2.07072 35.1378 0.620117 33.6872 0.620117 31.8978V5.25778ZM4.22012 5.61778V31.5378H11.2401V5.61778H4.22012ZM24.5602 5.25778C24.5602 3.46838 26.0108 2.01778 27.8002 2.01778H35.5402C37.3296 2.01778 38.7802 3.46838 38.7802 5.25778V31.8978C38.7802 33.6872 37.3296 35.1378 35.5402 35.1378H27.8002C26.0108 35.1378 24.5602 33.6872 24.5602 31.8978V5.25778ZM28.1602 5.61778V31.5378H35.1802V5.61778H28.1602Z" fill="#0264f8"/>
</svg>
