<svg width="40" height="40" viewBox="0 0 40 40" fill="none" xmlns="http://www.w3.org/2000/svg">
<circle cx="19.9219" cy="14.2969" r="4.92188" stroke="#0264F8" stroke-width="2.5"/>
<path d="M32.4971 30.1519C31.4455 27.7111 29.6938 25.6369 27.4634 24.1917C25.233 22.7465 22.6242 21.9951 19.9667 22.0326C17.3093 22.0701 14.7227 22.8947 12.5339 24.4023C10.3452 25.9098 8.65265 28.0326 7.67033 30.502L9.99177 31.4255C10.7915 29.4151 12.1693 27.6871 13.9511 26.4598C15.7329 25.2326 17.8386 24.5612 20.002 24.5307C22.1653 24.5002 24.2891 25.1119 26.1048 26.2884C27.9205 27.4649 29.3466 29.1534 30.2026 31.1404L32.4971 30.1519Z" fill="#0264F8"/>
<circle cx="20" cy="20.1562" r="15.4688" stroke="#0264F8" stroke-width="2.5"/>
</svg>
