<?xml version="1.0" encoding="utf-8"?>
<!-- Generator: Adobe Illustrator 26.3.1, SVG Export Plug-In . SVG Version: 6.00 Build 0)  -->
<svg version="1.1" id="图层_1" xmlns="http://www.w3.org/2000/svg" xmlns:xlink="http://www.w3.org/1999/xlink" x="0px" y="0px"
	 viewBox="0 0 149 30" style="enable-background:new 0 0 149 30;" xml:space="preserve">
<style type="text/css">
	.st0{fill-rule:evenodd;clip-rule:evenodd;fill:#0064FE;}
</style>
<g>
	<g>
		<path id="XMLID_1113_" class="st0" d="M109.57-0.04H87.88v29.79h7.91V3.97h8.97c2.14,0,3.9,1.75,3.9,3.9v21.88h7.91V6.95
			C116.56,3.11,113.41-0.04,109.57-0.04z"/>
		<path id="XMLID_1102_" class="st0" d="M141.77-0.04h-14.7c-3.84,0-6.99,3.15-6.99,6.99v15.81c0,3.84,3.15,6.99,6.99,6.99h14.7
			c3.85,0,6.99-3.15,6.99-6.99V6.95C148.77,3.11,145.62-0.04,141.77-0.04L141.77-0.04z M136.96,3.97c2.14,0,3.9,1.75,3.9,3.9v13.98
			c0,2.14-1.75,3.9-3.9,3.9h-5.07c-2.14,0-3.9-1.75-3.9-3.9V7.87c0-2.14,1.75-3.9,3.9-3.9H136.96z"/>
		<path id="XMLID_1101_" class="st0" d="M39-0.04l17.42,0v4.01H43.81c-2.14,0-3.89,1.75-3.89,3.9v0.76c0,2.14,1.75,3.9,3.89,3.9
			h12.61v4.01h-16.5v5.31c0,2.14,1.75,3.9,3.89,3.9h12.61v4.01H39c-3.84,0-6.99-3.15-6.99-6.99V6.95C32.01,3.11,35.16-0.04,39-0.04z
			"/>
		<path id="XMLID_1100_" class="st0" d="M66.94-0.04h17.42v4.01H71.75c-2.14,0-3.9,1.75-3.9,3.9v13.98c0,2.14,1.75,3.9,3.9,3.9
			h12.61v4.01H66.94c-3.85,0-6.99-3.15-6.99-6.99V6.95C59.95,3.11,63.09-0.04,66.94-0.04z"/>
		<path id="XMLID_26_" class="st0" d="M28.48-0.04H-0.19v4.01h10.39v25.78h7.91V7.87c0-2.14,1.75-3.89,3.89-3.9h6.5V-0.04z"/>
	</g>
</g>
</svg>
