<svg width="40" height="40" viewBox="0 0 40 40" fill="none" xmlns="http://www.w3.org/2000/svg">
<path fill-rule="evenodd" clip-rule="evenodd" d="M32.5 20C32.5 26.9036 26.9036 32.5 20 32.5C13.0964 32.5 7.5 26.9036 7.5 20C7.5 13.0964 13.0964 7.5 20 7.5C26.9036 7.5 32.5 13.0964 32.5 20ZM29.686 31.4538C27.0727 33.6661 23.6921 35 20 35C11.7157 35 5 28.2843 5 20C5 11.7157 11.7157 5 20 5C28.2843 5 35 11.7157 35 20C35 23.6921 33.6661 27.0727 31.4538 29.6861L34.4776 32.7099C34.9657 33.198 34.9657 33.9895 34.4776 34.4776C33.9894 34.9658 33.1979 34.9658 32.7098 34.4776L29.686 31.4538Z" fill="white"/>
</svg>
